<svg width="16" height="16" viewBox="0 0 16 16" fill="none" xmlns="http://www.w3.org/2000/svg">
<rect width="16" height="16" fill="white" fill-opacity="0.01"/>
<g clip-path="url(#clip0_346_42900)">
<rect width="14" height="14" transform="translate(1 1)" fill="white" fill-opacity="0.01"/>
<g clip-path="url(#clip1_346_42900)">
<path d="M12.6891 10.8325C14.1775 9.5042 15 7.9992 15 7.9992C15 7.9992 12.375 3.1867 8 3.1867C7.15964 3.1896 6.3288 3.3647 5.55875 3.7012L6.2325 4.37583C6.79901 4.16946 7.39708 4.06317 8 4.0617C9.855 4.0617 11.3941 5.0837 12.522 6.21158C13.0648 6.75731 13.5514 7.35619 13.9745 7.9992C13.9237 8.07533 13.8678 8.15933 13.8039 8.2512C13.5107 8.6712 13.0776 9.2312 12.522 9.78683C12.3776 9.9312 12.2271 10.0738 12.0696 10.2121L12.6891 10.8325Z" fill="#6C757D"/>
<path d="M10.8849 9.0282C11.0801 8.48206 11.1163 7.89171 10.9891 7.32582C10.862 6.75993 10.5768 6.24179 10.1667 5.83167C9.75654 5.42155 9.23839 5.13633 8.67251 5.00918C8.10662 4.88203 7.51626 4.91819 6.97013 5.11345L7.69025 5.83358C8.02652 5.78545 8.36938 5.81629 8.69166 5.92367C9.01394 6.03105 9.30679 6.21201 9.54699 6.45221C9.78719 6.69242 9.96815 6.98526 10.0755 7.30754C10.1829 7.62982 10.2138 7.97268 10.1656 8.30895L10.8849 9.0282ZM8.30975 10.1648L9.029 10.8841C8.48286 11.0793 7.8925 11.1155 7.32662 10.9884C6.76073 10.8612 6.24259 10.576 5.83247 10.1659C5.42235 9.75574 5.13712 9.2376 5.00998 8.67171C4.88283 8.10582 4.91899 7.51547 5.11425 6.96933L5.83437 7.68945C5.78624 8.02572 5.81709 8.36858 5.92447 8.69087C6.03185 9.01315 6.21281 9.30599 6.45301 9.54619C6.69321 9.7864 6.98606 9.96736 7.30834 10.0747C7.63062 10.1821 7.97348 10.213 8.30975 10.1648Z" fill="#6C757D"/>
<path d="M3.93125 5.78545C3.77375 5.92545 3.62238 6.0672 3.478 6.21158C2.93519 6.75731 2.44858 7.35619 2.0255 7.9992L2.19613 8.2512C2.48925 8.6712 2.92237 9.2312 3.478 9.78683C4.60588 10.9147 6.14587 11.9367 8 11.9367C8.6265 11.9367 9.21625 11.8203 9.7675 11.6217L10.4412 12.2972C9.6712 12.6337 8.84035 12.8088 8 12.8117C3.625 12.8117 1 7.9992 1 7.9992C1 7.9992 1.82162 6.49333 3.31087 5.16595L3.93038 5.78633L3.93125 5.78545ZM12.9403 13.559L2.44025 3.05895L3.05975 2.43945L13.5597 12.9395L12.9403 13.559Z" fill="#6C757D"/>
</g>
</g>
<defs>
<clipPath id="clip0_346_42900">
<rect width="14" height="14" fill="white" transform="translate(1 1)"/>
</clipPath>
<clipPath id="clip1_346_42900">
<rect width="14" height="14" fill="white" transform="translate(1 1)"/>
</clipPath>
</defs>
</svg>
