<svg width="20" height="20" viewBox="0 0 20 20" fill="none" xmlns="http://www.w3.org/2000/svg">
<path d="M15.1824 0.183617C15.2405 0.125413 15.3095 0.0792346 15.3854 0.0477266C15.4613 0.0162185 15.5427 0 15.6249 0C15.7072 0 15.7886 0.0162185 15.8645 0.0477266C15.9404 0.0792346 16.0094 0.125413 16.0674 0.183617L19.8174 3.93362C19.8757 3.99167 19.9218 4.06064 19.9533 4.13658C19.9848 4.21251 20.0011 4.29391 20.0011 4.37612C20.0011 4.45833 19.9848 4.53973 19.9533 4.61566C19.9218 4.69159 19.8757 4.76056 19.8174 4.81862L7.31745 17.3186C7.25747 17.3782 7.18603 17.425 7.10745 17.4561L0.857448 19.9561C0.743868 20.0016 0.619443 20.0127 0.499598 19.9881C0.379752 19.9635 0.269757 19.9043 0.183249 19.8178C0.0967411 19.7313 0.0375242 19.6213 0.0129399 19.5015C-0.0116444 19.3816 -0.000515007 19.2572 0.0449483 19.1436L2.54495 12.8936C2.57611 12.815 2.62289 12.7436 2.68245 12.6836L15.1824 0.183617ZM14.0087 3.12612L16.8749 5.99237L18.4912 4.37612L15.6249 1.50987L14.0087 3.12612ZM15.9912 6.87612L13.1249 4.00987L4.99995 12.1349V12.5011H5.62495C5.79071 12.5011 5.94968 12.567 6.06689 12.6842C6.1841 12.8014 6.24995 12.9604 6.24995 13.1261V13.7511H6.87495C7.04071 13.7511 7.19968 13.817 7.31689 13.9342C7.4341 14.0514 7.49995 14.2104 7.49995 14.3761V15.0011H7.8662L15.9912 6.87612ZM3.78995 13.3449L3.65745 13.4774L1.74745 18.2536L6.5237 16.3436L6.6562 16.2111C6.53697 16.1666 6.43419 16.0867 6.36159 15.9821C6.28899 15.8776 6.25004 15.7534 6.24995 15.6261V15.0011H5.62495C5.45919 15.0011 5.30022 14.9353 5.18301 14.8181C5.0658 14.7008 4.99995 14.5419 4.99995 14.3761V13.7511H4.37495C4.24767 13.751 4.12346 13.7121 4.01892 13.6395C3.91438 13.5669 3.83449 13.4641 3.78995 13.3449Z" fill="white"/>
</svg>
